<svg xmlns="http://www.w3.org/2000/svg" width="276.904" height="38.71" viewBox="0 0 276.904 38.71">
  <g id="Group_90" data-name="Group 90" transform="translate(-2066.191 -86.079)">
    <g id="Group_88" data-name="Group 88" transform="translate(2066.191 86.079)">
      <path id="Path_86" data-name="Path 86" d="M2092.616,86.5c13.408,0,21.991,5.106,21.991,17.392v3.085c0,12.061-8.191,17.11-21.991,17.11h-26.426V86.5Zm-14.644,28.051h14.644c7.461,0,9.93-2.638,9.93-7.574v-3.085c0-5.049-2.358-7.854-9.93-7.854h-14.644Z" transform="translate(-2066.191 -85.934)" fill="#fff"/>
      <path id="Path_87" data-name="Path 87" d="M2132.6,86.079c13.633,0,24.572,6.62,24.572,18.513v1.684c0,11.893-10.939,18.513-24.572,18.513h-2.805c-13.97,0-25.134-6.621-25.134-18.513v-1.684c0-11.894,11.165-18.513,25.134-18.513Zm-15.877,18.513v1.684c0,5.441,4.936,8.415,13.072,8.415h2.245c8.135,0,13.07-2.973,13.07-8.415v-1.684c0-5.5-4.936-8.415-13.07-8.415h-2.245C2121.657,96.177,2116.721,99.094,2116.721,104.592Z" transform="translate(-2052.808 -86.079)" fill="#fff"/>
      <path id="Path_88" data-name="Path 88" d="M2165.329,86.5l10.1,18.458h2.244L2187.939,86.5h18.288v37.588h-11.781V97.154h-1.74l-10.21,18.29h-13.52l-9.986-18.29h-1.739v26.928H2146.03V86.5Z" transform="translate(-2038.415 -85.934)" fill="#fff"/>
      <path id="Path_89" data-name="Path 89" d="M2213.32,86.5l10.1,18.458h2.244L2235.93,86.5h18.289v37.588h-11.782V97.154H2240.7l-10.21,18.29h-13.521l-9.987-18.29h-1.739v26.928h-11.221V86.5Z" transform="translate(-2021.718 -85.934)" fill="#fff"/>
    </g>
    <g id="Group_89" data-name="Group 89" transform="translate(2309.865 90.852)">
      <path id="Path_90" data-name="Path 90" d="M2249.707,89.62v5.187h9.476V89.62h2.736v12.824h-2.736V97.027h-9.476v5.417h-2.736V89.62Z" transform="translate(-2246.971 -89.62)" fill="#fff"/>
      <path id="Path_91" data-name="Path 91" d="M2269.9,89.62v2.239h-3.617v8.346h3.617v2.239h-9.953v-2.239h3.6V91.859h-3.6V89.62Z" transform="translate(-2242.456 -89.62)" fill="#fff"/>
      <path id="Path_92" data-name="Path 92" d="M2249.786,101.743l5.569,10.565h.88l5.493-10.565h2.738l-6.68,12.824h-4.076l-6.738-12.824Z" transform="translate(-2246.971 -85.402)" fill="#fff"/>
      <path id="Path_93" data-name="Path 93" d="M2275.12,101.743v2.162h-11.1v3.139h10.049v2.03h-10.049V112.4h11.2v2.163H2261.3V101.743Z" transform="translate(-2241.986 -85.402)" fill="#fff"/>
    </g>
  </g>
</svg>
